<?xml version="1.0" encoding="UTF-8" standalone="no"?>
<!-- Created with Inkscape (http://www.inkscape.org/) -->

<svg
   xmlns:osb="http://www.openswatchbook.org/uri/2009/osb"
   xmlns:dc="http://purl.org/dc/elements/1.1/"
   xmlns:cc="http://creativecommons.org/ns#"
   xmlns:rdf="http://www.w3.org/1999/02/22-rdf-syntax-ns#"
   xmlns:svg="http://www.w3.org/2000/svg"
   xmlns="http://www.w3.org/2000/svg"
   xmlns:xlink="http://www.w3.org/1999/xlink"
   xmlns:sodipodi="http://sodipodi.sourceforge.net/DTD/sodipodi-0.dtd"
   xmlns:inkscape="http://www.inkscape.org/namespaces/inkscape"
   width="96"
   height="96"
   viewBox="0 0 25.399999 25.400001"
   version="1.1"
   id="svg8"
   shape-rendering="crispEdges"
   inkscape:version="0.92.3 (2405546, 2018-03-11)"
   sodipodi:docname="qdevcpp.svg.2019_10_21_22_31_50.0.svg"
   inkscape:export-filename="/home/nekosu/qdevcpp/qdevcpp.png"
   inkscape:export-xdpi="96"
   inkscape:export-ydpi="96">
  <defs
     id="defs2">
    <linearGradient
       inkscape:collect="always"
       id="linearGradient865">
      <stop
         style="stop-color:#00ff7f;stop-opacity:0.74901962"
         offset="0"
         id="stop861" />
      <stop
         style="stop-color:#7fff00;stop-opacity:0.74901962"
         offset="1"
         id="stop863" />
    </linearGradient>
    <linearGradient
       id="linearGradient857"
       osb:paint="solid">
      <stop
         style="stop-color:#00ff00;stop-opacity:1;"
         offset="0"
         id="stop855" />
    </linearGradient>
    <linearGradient
       id="linearGradient6026"
       osb:paint="solid">
      <stop
         style="stop-color:#000000;stop-opacity:1;"
         offset="0"
         id="stop6024" />
    </linearGradient>
    <linearGradient
       inkscape:collect="always"
       xlink:href="#linearGradient865"
       id="linearGradient4551"
       x1="271.73373"
       y1="-12.7"
       x2="296.86621"
       y2="-12.7"
       gradientUnits="userSpaceOnUse" />
  </defs>
  <sodipodi:namedview
     id="base"
     pagecolor="#ffffff"
     bordercolor="#666666"
     borderopacity="1.0"
     inkscape:pageopacity="0.0"
     inkscape:pageshadow="2"
     inkscape:zoom="3.959798"
     inkscape:cx="56.047976"
     inkscape:cy="50.352232"
     inkscape:document-units="mm"
     inkscape:current-layer="layer1"
     showgrid="false"
     units="px"
     inkscape:pagecheckerboard="true"
     showborder="true"
     borderlayer="false"
     inkscape:showpageshadow="false"
     inkscape:window-width="1366"
     inkscape:window-height="713"
     inkscape:window-x="0"
     inkscape:window-y="27"
     inkscape:window-maximized="1" />
  <metadata
     id="metadata5">
    <rdf:RDF>
      <cc:Work
         rdf:about="">
        <dc:format>image/svg+xml</dc:format>
        <dc:type
           rdf:resource="http://purl.org/dc/dcmitype/StillImage" />
        <dc:title />
      </cc:Work>
    </rdf:RDF>
  </metadata>
  <g
     inkscape:label="Layer 1"
     inkscape:groupmode="layer"
     id="layer1"
     transform="translate(0,-271.59996)">
    <rect
       style="fill:url(#linearGradient4551);fill-opacity:1;stroke:none;stroke-width:0.26753214;stroke-opacity:1;opacity:1"
       id="rect837"
       width="25.132467"
       height="25.132467"
       x="271.73373"
       y="-25.266233"
       transform="rotate(90)" />
    <path
       style="font-style:normal;font-weight:normal;font-size:9.92615795px;line-height:1.25;font-family:sans-serif;letter-spacing:0px;word-spacing:0px;fill:#ffffff;fill-opacity:0.74901962;stroke:#00007f;stroke-width:0.9379046;stroke-opacity:1"
       d="M 16.103516 16.486328 C 14.547966 16.486328 13.125646 16.757161 11.833984 17.298828 C 10.542322 17.840495 9.3812896 18.575304 8.3535156 19.505859 C 7.3396305 20.422526 6.4513861 21.500217 5.6875 22.736328 C 4.9236139 23.972439 4.2853714 25.284939 3.7714844 26.673828 C 3.2714862 28.062717 2.8964835 29.500217 2.6464844 30.986328 C 2.3964853 32.45855 2.2714844 33.89605 2.2714844 35.298828 C 2.2714844 37.840495 2.7923215 39.887804 3.8339844 41.443359 C 4.8895361 42.985026 6.4576899 43.937717 8.5410156 44.298828 C 8.3882384 45.507161 8.4375009 46.562066 8.6875 47.464844 C 8.9513879 48.38151 9.3812956 49.144748 9.9785156 49.755859 C 10.575736 50.36697 11.320099 50.825304 12.208984 51.130859 C 13.09787 51.436415 14.097877 51.589844 15.208984 51.589844 C 16.236758 51.589844 17.263242 51.430773 18.291016 51.111328 C 19.31879 50.791884 20.368059 50.255859 21.4375 49.505859 L 19.9375 46.943359 C 19.173614 47.471137 18.444442 47.846137 17.75 48.068359 C 17.069447 48.290582 16.39518 48.402344 15.728516 48.402344 C 15.034074 48.402344 14.445094 48.305773 13.958984 48.111328 C 13.472875 47.916884 13.077039 47.638455 12.771484 47.277344 C 12.479819 46.930122 12.271484 46.505859 12.146484 46.005859 C 12.021485 45.519748 11.972222 44.978082 12 44.380859 C 13.402773 44.214193 14.681211 43.818359 15.833984 43.193359 C 17.000647 42.568359 18.042321 41.784288 18.958984 40.839844 C 19.875648 39.895399 20.672963 38.825304 21.353516 37.630859 C 22.047958 36.422526 22.618057 35.159288 23.0625 33.839844 C 23.520832 32.50651 23.861763 31.144748 24.083984 29.755859 C 24.306206 28.353082 24.416016 26.985677 24.416016 25.652344 C 24.416016 22.735677 23.722868 20.478082 22.333984 18.880859 C 20.945101 17.283637 18.867394 16.486328 16.103516 16.486328 z M 30.083984 16.861328 L 24.625 44.089844 L 31.021484 44.089844 C 32.8687 44.089844 34.514545 43.894748 35.958984 43.505859 C 37.403424 43.103082 38.679909 42.56901 39.791016 41.902344 C 40.916012 41.235677 41.889543 40.457248 42.708984 39.568359 C 43.528426 38.679471 44.221573 37.74197 44.791016 36.755859 C 45.360458 35.769748 45.818795 34.764106 46.166016 33.736328 C 46.527125 32.694662 46.805556 31.700304 47 30.755859 C 47.194444 29.811415 47.32704 28.930773 47.396484 28.111328 C 47.465929 27.291884 47.5 26.604384 47.5 26.048828 C 47.5 22.909939 46.611756 20.597439 44.833984 19.111328 C 43.056213 17.611328 40.416003 16.861328 36.916016 16.861328 L 30.083984 16.861328 z M 15.6875 19.714844 C 16.562497 19.714844 17.304907 19.860677 17.916016 20.152344 C 18.541013 20.44401 19.056208 20.860677 19.458984 21.402344 C 19.861761 21.94401 20.153429 22.597439 20.333984 23.361328 C 20.528428 24.125217 20.625 24.979384 20.625 25.923828 C 20.625 26.812717 20.541666 27.812717 20.375 28.923828 C 20.222223 30.02105 19.979816 31.138455 19.646484 32.277344 C 19.313152 33.402344 18.888887 34.50651 18.375 35.589844 C 17.861113 36.659288 17.243704 37.617622 16.521484 38.464844 C 15.813154 39.298177 15.000648 39.972439 14.083984 40.486328 C 13.167321 40.986328 12.14648 41.236328 11.021484 41.236328 C 10.146488 41.236328 9.3964821 41.090495 8.7714844 40.798828 C 8.1464867 40.507161 7.6312919 40.090495 7.2285156 39.548828 C 6.8396282 39.007161 6.5479594 38.361328 6.3535156 37.611328 C 6.1729607 36.847439 6.0839844 35.993273 6.0839844 35.048828 C 6.0839844 34.159939 6.1597228 33.165582 6.3125 32.068359 C 6.4791661 30.957248 6.7291679 29.839844 7.0625 28.714844 C 7.3958321 27.575955 7.8200974 26.471788 8.3339844 25.402344 C 8.8478714 24.31901 9.4576849 23.360677 10.166016 22.527344 C 10.888235 21.680122 11.708337 21.000217 12.625 20.486328 C 13.541663 19.972439 14.562504 19.714844 15.6875 19.714844 z M 33.166016 19.986328 L 36.478516 19.986328 C 37.672956 19.986328 38.722226 20.103733 39.625 20.339844 C 40.527774 20.562066 41.27778 20.923828 41.875 21.423828 C 42.47222 21.923828 42.917319 22.569662 43.208984 23.361328 C 43.514539 24.139106 43.666016 25.089844 43.666016 26.214844 C 43.666016 26.673177 43.63954 27.235677 43.583984 27.902344 C 43.542318 28.555121 43.443793 29.27105 43.291016 30.048828 C 43.152127 30.812717 42.951388 31.610026 42.6875 32.443359 C 42.423612 33.276693 42.077038 34.096788 41.646484 34.902344 C 41.229819 35.707899 40.72222 36.471137 40.125 37.193359 C 39.52778 37.915582 38.811846 38.555773 37.978516 39.111328 C 37.159074 39.652995 36.215925 40.082899 35.146484 40.402344 C 34.077044 40.721788 32.861106 40.880859 31.5 40.880859 L 28.978516 40.880859 L 33.166016 19.986328 z M 62 22.798828 C 60.291673 22.798828 58.708328 23.173828 57.25 23.923828 C 55.805561 24.659939 54.555552 25.665582 53.5 26.943359 C 52.444448 28.207248 51.618704 29.686415 51.021484 31.380859 C 50.424264 33.075304 50.125 34.882162 50.125 36.798828 C 50.125 39.284939 50.825743 41.186415 52.228516 42.505859 C 53.631288 43.811415 55.805566 44.464844 58.75 44.464844 C 60.083328 44.464844 61.395838 44.373915 62.6875 44.193359 C 63.993051 44.026693 65.167322 43.805122 66.208984 43.527344 L 66.208984 40.548828 C 65.264543 40.784939 64.186845 40.993273 62.978516 41.173828 C 61.784076 41.354384 60.575733 41.443359 59.353516 41.443359 C 57.464634 41.443359 56.06879 41.041884 55.166016 40.236328 C 54.263241 39.430773 53.8125 38.269748 53.8125 36.755859 C 53.8125 36.450304 53.825738 36.137804 53.853516 35.818359 C 53.895182 35.498915 53.95204 35.159939 54.021484 34.798828 L 57.9375 34.798828 C 60.006937 34.798828 61.770188 34.645399 63.228516 34.339844 C 64.686844 34.020399 65.874352 33.575304 66.791016 33.005859 C 67.721568 32.422526 68.395835 31.729384 68.8125 30.923828 C 69.243054 30.118273 69.458984 29.214844 69.458984 28.214844 C 69.458984 27.450955 69.292316 26.742621 68.958984 26.089844 C 68.625652 25.423177 68.138887 24.847439 67.5 24.361328 C 66.861113 23.875217 66.077037 23.492622 65.146484 23.214844 C 64.229821 22.937066 63.180551 22.798828 62 22.798828 z M 74.916016 23.173828 L 78.833984 44.089844 L 82.333984 44.089844 C 83.875645 42.784288 85.292322 41.325955 86.583984 39.714844 C 87.889535 38.103733 89.027781 36.395399 90 34.589844 C 90.986107 32.784288 91.798613 30.916884 92.4375 28.986328 C 93.076387 27.055773 93.506294 25.118272 93.728516 23.173828 L 89.625 23.173828 C 89.472223 24.784939 89.201387 26.389106 88.8125 27.986328 C 88.423613 29.569661 87.89518 31.111328 87.228516 32.611328 C 86.57574 34.097439 85.784068 35.514106 84.853516 36.861328 C 83.936852 38.20855 82.868702 39.437717 81.646484 40.548828 L 81.146484 37.005859 L 78.833984 23.173828 L 74.916016 23.173828 z M 61.791016 25.693359 C 62.45768 25.693359 63.035375 25.77105 63.521484 25.923828 C 64.021483 26.076606 64.430557 26.284939 64.75 26.548828 C 65.083332 26.812717 65.325738 27.117622 65.478516 27.464844 C 65.631293 27.812066 65.708984 28.179471 65.708984 28.568359 C 65.708984 29.012804 65.589626 29.444661 65.353516 29.861328 C 65.117405 30.277995 64.700736 30.645399 64.103516 30.964844 C 63.520184 31.284288 62.72287 31.541884 61.708984 31.736328 C 60.708988 31.916884 59.438145 32.005859 57.896484 32.005859 L 54.5625 32.005859 C 54.881943 31.047526 55.270184 30.180121 55.728516 29.402344 C 56.186847 28.624566 56.71528 27.965495 57.3125 27.423828 C 57.90972 26.868273 58.576392 26.44401 59.3125 26.152344 C 60.062497 25.846788 60.888241 25.693359 61.791016 25.693359 z "
       transform="matrix(0.26458333,0,0,0.26458333,0,271.59996)"
       id="text6106" />
    <text
       xml:space="preserve"
       style="font-style:normal;font-weight:normal;font-size:10.58862305px;line-height:1.25;font-family:sans-serif;letter-spacing:0px;word-spacing:0px;fill:#000000;fill-opacity:0.24705882;stroke:#00007f;stroke-width:0.26471558;stroke-opacity:1;"
       x="3.284194"
       y="292.40359"
       id="text6110"
       transform="scale(0.99950035,1.0004999)"><tspan
         sodipodi:role="line"
         id="tspan6108"
         x="3.284194"
         y="292.40359"
         style="font-style:italic;font-variant:normal;font-weight:normal;font-stretch:normal;font-size:11.29453182px;font-family:Consolas;-inkscape-font-specification:'Consolas Italic';stroke-width:0.26471558;stroke:#00007f;stroke-opacity:1;fill:#000000;fill-opacity:0.24705882;">C++</tspan></text>
  </g>
</svg>
