<?xml version="1.0" encoding="UTF-8" standalone="no"?>
<!-- Created with Inkscape (http://www.inkscape.org/) -->

<svg
   xmlns:dc="http://purl.org/dc/elements/1.1/"
   xmlns:cc="http://creativecommons.org/ns#"
   xmlns:rdf="http://www.w3.org/1999/02/22-rdf-syntax-ns#"
   xmlns:svg="http://www.w3.org/2000/svg"
   xmlns="http://www.w3.org/2000/svg"
   xmlns:xlink="http://www.w3.org/1999/xlink"
   xmlns:sodipodi="http://sodipodi.sourceforge.net/DTD/sodipodi-0.dtd"
   xmlns:inkscape="http://www.inkscape.org/namespaces/inkscape"
   width="96"
   height="96"
   viewBox="0 0 25.399999 25.400001"
   version="1.1"
   id="svg8"
   inkscape:version="0.92.3 (2405546, 2018-03-11)"
   sodipodi:docname="c.svg">
  <defs
     id="defs2">
    <linearGradient
       inkscape:collect="always"
       id="linearGradient821">
      <stop
         style="stop-color:#00ff7f;stop-opacity:0.74901962"
         offset="0"
         id="stop817" />
      <stop
         style="stop-color:#7fff00;stop-opacity:0.74901962"
         offset="1"
         id="stop819" />
    </linearGradient>
    <linearGradient
       inkscape:collect="always"
       xlink:href="#linearGradient821"
       id="linearGradient823"
       x1="0"
       y1="284.29998"
       x2="25.4"
       y2="284.29998"
       gradientUnits="userSpaceOnUse"
       gradientTransform="translate(271.59998,-296.99998)" />
  </defs>
  <sodipodi:namedview
     id="base"
     pagecolor="#ffffff"
     bordercolor="#666666"
     borderopacity="1.0"
     inkscape:pageopacity="0.0"
     inkscape:pageshadow="2"
     inkscape:zoom="2.8"
     inkscape:cx="-21.762137"
     inkscape:cy="30.812201"
     inkscape:document-units="mm"
     inkscape:current-layer="layer1"
     showgrid="false"
     units="px"
     inkscape:window-width="1366"
     inkscape:window-height="713"
     inkscape:window-x="0"
     inkscape:window-y="27"
     inkscape:window-maximized="1" />
  <metadata
     id="metadata5">
    <rdf:RDF>
      <cc:Work
         rdf:about="">
        <dc:format>image/svg+xml</dc:format>
        <dc:type
           rdf:resource="http://purl.org/dc/dcmitype/StillImage" />
        <dc:title></dc:title>
      </cc:Work>
    </rdf:RDF>
  </metadata>
  <g
     inkscape:label="Layer 1"
     inkscape:groupmode="layer"
     id="layer1"
     transform="translate(0,-271.59998)">
    <rect
       style="fill:url(#linearGradient823);fill-opacity:1;stroke:none;stroke-width:0.50663191;stroke-opacity:1"
       id="rect815"
       width="25.4"
       height="25.4"
       x="271.59998"
       y="-25.4"
       transform="rotate(90)" />
    <path
       inkscape:connector-curvature="0"
       style="font-style:normal;font-weight:normal;font-size:9.92615795px;line-height:1.25;font-family:sans-serif;letter-spacing:0px;word-spacing:0px;fill:#ffffff;fill-opacity:0.74901961;stroke:#00007f;stroke-width:0.24815392;stroke-opacity:1"
       d="m 4.2531738,274.88809 c -0.411573,0 -0.787895,0.0716 -1.129647,0.21497 -0.341752,0.14332 -0.648942,0.33774 -0.920874,0.58394 -0.268257,0.24254 -0.503272,0.52768 -0.705383,0.85473 -0.202112,0.32706 -0.37098,0.67433 -0.506946,1.04181 -0.132291,0.36748 -0.231511,0.74782 -0.297656,1.14102 -0.06615,0.38952 -0.09922,0.76986 -0.09922,1.14101 0,0.67248 0.137805,1.21417 0.413411,1.62574 0.279282,0.4079 0.694189,0.65997 1.245402,0.75551 -0.04042,0.31971 -0.02739,0.59882 0.03876,0.83768 0.06982,0.24253 0.183567,0.44447 0.341582,0.60616 0.158014,0.16169 0.35496,0.28296 0.590145,0.3638 0.235184,0.0808 0.499769,0.12144 0.793749,0.12144 0.271932,0 0.543523,-0.0421 0.815455,-0.12661 0.271932,-0.0845 0.549551,-0.22634 0.832507,-0.42478 l -0.396875,-0.67799 c -0.202112,0.13964 -0.395038,0.23886 -0.578776,0.29766 -0.180063,0.0588 -0.358463,0.0884 -0.534851,0.0884 -0.183738,0 -0.339572,-0.0256 -0.468189,-0.077 -0.128616,-0.0514 -0.233348,-0.12511 -0.314192,-0.22065 -0.07717,-0.0919 -0.132292,-0.20413 -0.165365,-0.33642 -0.03307,-0.12861 -0.04611,-0.27193 -0.03876,-0.42995 0.37115,-0.0441 0.709404,-0.14882 1.014408,-0.31419 0.30868,-0.16536 0.584289,-0.37281 0.826823,-0.6227 0.242534,-0.24988 0.45349,-0.53301 0.633553,-0.84904 0.183738,-0.31971 0.334577,-0.65394 0.452169,-1.00304 0.121267,-0.35278 0.211472,-0.71308 0.270268,-1.08056 0.0588,-0.37115 0.08785,-0.73294 0.08785,-1.08572 0,-0.7717 -0.183396,-1.36902 -0.550871,-1.79162 -0.367476,-0.4226 -0.917202,-0.63356 -1.648478,-0.63356 z m 3.698999,0.0992 -1.444356,7.20422 h 1.692403 c 0.488742,0 0.924205,-0.0516 1.30638,-0.15452 0.382175,-0.10656 0.7199112,-0.24787 1.0138922,-0.42426 0.297655,-0.17639 0.555235,-0.38235 0.772045,-0.61753 0.216811,-0.23519 0.400206,-0.48323 0.550871,-0.74414 0.150665,-0.26091 0.271934,-0.52699 0.363802,-0.79892 0.09554,-0.27561 0.169212,-0.5387 0.220659,-0.78859 0.05145,-0.24989 0.08653,-0.48289 0.104903,-0.6997 0.01838,-0.21681 0.02739,-0.39871 0.02739,-0.5457 0,-0.8305 -0.235014,-1.44235 -0.705383,-1.83555 -0.470369,-0.39688 -1.168924,-0.59531 -2.0949622,-0.59531 z m -3.80907,0.75499 c 0.23151,0 0.427939,0.0386 0.589628,0.11575 0.165364,0.0772 0.301676,0.18742 0.408244,0.33074 0.106568,0.14332 0.183739,0.31621 0.23151,0.51832 0.05145,0.20211 0.077,0.42811 0.077,0.67799 0,0.23519 -0.02205,0.49977 -0.06615,0.79375 -0.04042,0.29031 -0.104559,0.58596 -0.192753,0.88729 -0.08819,0.29765 -0.200447,0.5898 -0.336413,0.87643 -0.135966,0.28296 -0.299322,0.53652 -0.49041,0.76068 -0.187412,0.22048 -0.402388,0.39888 -0.644922,0.53485 -0.242533,0.13229 -0.512631,0.19843 -0.810286,0.19843 -0.231509,0 -0.429949,-0.0386 -0.595313,-0.11575 -0.165363,-0.0772 -0.301675,-0.18741 -0.408243,-0.33073 -0.102893,-0.14332 -0.180064,-0.31419 -0.231511,-0.51263 -0.04777,-0.20211 -0.07131,-0.42811 -0.07131,-0.67799 0,-0.23519 0.02004,-0.49828 0.06046,-0.78859 0.0441,-0.29398 0.110244,-0.58963 0.198438,-0.88728 0.08819,-0.30133 0.200447,-0.59348 0.336413,-0.87643 0.135966,-0.28664 0.297313,-0.5402 0.484725,-0.76068 0.191088,-0.22416 0.408073,-0.40405 0.650607,-0.54003 0.242533,-0.13596 0.512631,-0.20412 0.810286,-0.20412 z m 4.624524,0.0718 h 0.876432 c 0.3160294,0 0.5936492,0.0311 0.8325082,0.0935 0.238859,0.0588 0.437298,0.15451 0.595312,0.28681 0.158015,0.13229 0.27578,0.30317 0.35295,0.51263 0.08085,0.20578 0.120923,0.45733 0.120923,0.75499 0,0.12127 -0.007,0.2701 -0.0217,0.44648 -0.01103,0.17272 -0.03709,0.36214 -0.07751,0.56793 -0.03675,0.20211 -0.08986,0.41307 -0.15968,0.63355 -0.06982,0.22049 -0.161518,0.43747 -0.275436,0.65061 -0.110242,0.21313 -0.244545,0.41507 -0.402559,0.60616 -0.158015,0.19109 -0.347439,0.36047 -0.567924,0.50746 -0.2168112,0.14332 -0.4663522,0.25707 -0.7493082,0.34159 -0.282956,0.0845 -0.604673,0.1266 -0.964799,0.1266 h -0.667152 z m 7.6289922,0.74415 c -0.451995,0 -0.870922,0.0992 -1.256771,0.29766 -0.382175,0.19475 -0.712906,0.46083 -0.992188,0.79891 -0.279281,0.33441 -0.497759,0.72577 -0.655774,1.17409 -0.158014,0.44832 -0.237194,0.92639 -0.237194,1.43351 0,0.65778 0.185405,1.16088 0.556555,1.50998 0.37115,0.34543 0.946428,0.51832 1.725476,0.51832 0.352776,0 0.700045,-0.0241 1.041797,-0.0718 0.345427,-0.0441 0.656119,-0.10273 0.931726,-0.17622 v -0.78807 c -0.249884,0.0625 -0.535025,0.1176 -0.854728,0.16537 -0.316029,0.0478 -0.635737,0.0713 -0.959115,0.0713 -0.499767,0 -0.869084,-0.10622 -1.107943,-0.31936 -0.238859,-0.21314 -0.358117,-0.52032 -0.358117,-0.92087 0,-0.0808 0.0035,-0.16353 0.01085,-0.24805 0.01103,-0.0845 0.02607,-0.17421 0.04444,-0.26975 h 1.036112 c 0.547538,0 1.014065,-0.0406 1.399915,-0.12144 0.385849,-0.0845 0.700044,-0.20228 0.942578,-0.35295 0.246208,-0.15434 0.424608,-0.33773 0.534851,-0.55087 0.113917,-0.21314 0.171049,-0.45217 0.171049,-0.71675 0,-0.20212 -0.0441,-0.38953 -0.132292,-0.56224 -0.08819,-0.17639 -0.216984,-0.32872 -0.386023,-0.45734 -0.169039,-0.12862 -0.376492,-0.22984 -0.622701,-0.30334 -0.242534,-0.0735 -0.520153,-0.11007 -0.832507,-0.11007 z m 3.417362,0.0992 1.036629,5.53403 h 0.926042 c 0.407898,-0.34543 0.782727,-0.73128 1.124479,-1.15755 0.345427,-0.42628 0.646588,-0.87827 0.903821,-1.35599 0.260908,-0.47772 0.475883,-0.97182 0.644922,-1.4826 0.169039,-0.51079 0.282785,-1.02343 0.341581,-1.5379 h -1.085722 c -0.04042,0.42627 -0.112081,0.85071 -0.214974,1.27331 -0.102893,0.41893 -0.242707,0.82682 -0.419095,1.22369 -0.172714,0.3932 -0.382177,0.76803 -0.628386,1.12448 -0.242534,0.35645 -0.525149,0.68167 -0.848527,0.97565 l -0.132292,-0.93741 -0.611849,-3.65972 z m -3.472656,0.66662 c 0.176388,0 0.329237,0.0206 0.457853,0.061 0.132291,0.0404 0.240526,0.0956 0.325045,0.16537 0.08819,0.0698 0.152331,0.15049 0.192753,0.24236 0.04042,0.0919 0.06098,0.18908 0.06098,0.29197 0,0.11759 -0.03158,0.23186 -0.09405,0.3421 -0.06247,0.11024 -0.172715,0.20745 -0.330729,0.29197 -0.15434,0.0845 -0.365296,0.15268 -0.633553,0.20412 -0.264583,0.0478 -0.600826,0.0713 -1.008724,0.0713 h -0.882117 c 0.08452,-0.25356 0.187242,-0.48306 0.308509,-0.68885 0.121266,-0.20579 0.261081,-0.38017 0.419095,-0.52348 0.158015,-0.14699 0.334405,-0.25925 0.529167,-0.33642 0.198437,-0.0808 0.416915,-0.12144 0.655774,-0.12144 z"
       id="text6106" />
    <text
       xml:space="preserve"
       style="font-style:normal;font-weight:normal;font-size:10.13169289px;line-height:1.25;font-family:sans-serif;letter-spacing:0px;word-spacing:0px;fill:#000000;fill-opacity:0.24705882;stroke:#00007f;stroke-width:0.25329235;stroke-opacity:1"
       x="5.316155"
       y="305.93335"
       id="text6110"
       transform="scale(1.0457502,0.95625132)"><tspan
         sodipodi:role="line"
         x="5.316155"
         y="305.93335"
         style="font-style:italic;font-variant:normal;font-weight:normal;font-stretch:normal;font-size:10.80713844px;font-family:Consolas;-inkscape-font-specification:'Consolas Italic';fill:#000000;fill-opacity:0.24705882;stroke:#00007f;stroke-width:0.25329235;stroke-opacity:1"
         id="tspan2272">.C</tspan></text>
  </g>
</svg>
